<?xml version="1.0" encoding="utf-8"?>
<svg version="1.1" xmlns:xlink="http://www.w3.org/1999/xlink" width="12px" height="12px" viewBox="20 96.5  12 12" xmlns="http://www.w3.org/2000/svg">
  <path d="M 26 96.5  C 29.36 96.5  32 99.14  32 102.5  C 32 105.86  29.36 108.5  26 108.5  C 22.64 108.5  20 105.86  20 102.5  C 20 99.14  22.64 96.5  26 96.5  Z " fill-rule="nonzero" fill="#ffffff" stroke="none" />
  <path d="M 26 97  C 29.08 97  31.5 99.42  31.5 102.5  C 31.5 105.58  29.08 108  26 108  C 22.92 108  20.5 105.58  20.5 102.5  C 20.5 99.42  22.92 97  26 97  Z " stroke-width="1" stroke="#797979" fill="none" />
  <path d="M 26 105.5  C 24.32 105.5  23 104.18  23 102.5  C 23 100.82  24.32 99.5  26 99.5  C 27.68 99.5  29 100.82  29 102.5  C 29 104.18  27.68 105.5  26 105.5  " fill-rule="nonzero" fill="#797979" stroke="none" />
</svg>