<?xml version="1.0" encoding="utf-8"?>
<svg version="1.1" xmlns:xlink="http://www.w3.org/1999/xlink" width="12px" height="12px" viewBox="20 121.5  12 12" xmlns="http://www.w3.org/2000/svg">
  <path d="M 26 121.5  C 29.36 121.5  32 124.14  32 127.5  C 32 130.86  29.36 133.5  26 133.5  C 22.64 133.5  20 130.86  20 127.5  C 20 124.14  22.64 121.5  26 121.5  Z " fill-rule="nonzero" fill="#f0f0f0" stroke="none" />
  <path d="M 26 122  C 29.08 122  31.5 124.42  31.5 127.5  C 31.5 130.58  29.08 133  26 133  C 22.92 133  20.5 130.58  20.5 127.5  C 20.5 124.42  22.92 122  26 122  Z " stroke-width="1" stroke="#797979" fill="none" />
  <path d="M 26 130.5  C 24.32 130.5  23 129.18  23 127.5  C 23 125.82  24.32 124.5  26 124.5  C 27.68 124.5  29 125.82  29 127.5  C 29 129.18  27.68 130.5  26 130.5  " fill-rule="nonzero" fill="#797979" stroke="none" />
</svg>