<?xml version="1.0" encoding="utf-8"?>
<svg version="1.1" xmlns:xlink="http://www.w3.org/1999/xlink" width="12px" height="12px" viewBox="20 146.5  12 12" xmlns="http://www.w3.org/2000/svg">
  <path d="M 26 146.5  C 29.36 146.5  32 149.14  32 152.5  C 32 155.86  29.36 158.5  26 158.5  C 22.64 158.5  20 155.86  20 152.5  C 20 149.14  22.64 146.5  26 146.5  Z " fill-rule="nonzero" fill="#ffffff" stroke="none" />
  <path d="M 26 147  C 29.08 147  31.5 149.42  31.5 152.5  C 31.5 155.58  29.08 158  26 158  C 22.92 158  20.5 155.58  20.5 152.5  C 20.5 149.42  22.92 147  26 147  Z " stroke-width="1" stroke="#797979" fill="none" />
  <path d="M 26 155.5  C 24.32 155.5  23 154.18  23 152.5  C 23 150.82  24.32 149.5  26 149.5  C 27.68 149.5  29 150.82  29 152.5  C 29 154.18  27.68 155.5  26 155.5  " fill-rule="nonzero" fill="#797979" stroke="none" />
</svg>